<svg xmlns="http://www.w3.org/2000/svg" width="30px" height="30px" class="svg-no-unread-posts-popular" viewBox="0 0 512 512">

 
 <g fill-opacity="0.2" stroke="null" id="svg_18">
   <path stroke="null" id="svg_17" d="m118.917579,239.433629c-5.523656,0 -10.04301,-4.519355 -10.04301,-10.04301l0,-26.781361c0,-5.523656 4.519355,-10.04301 10.04301,-10.04301l194.164867,0c5.523656,0 10.04301,4.519355 10.04301,10.04301l0,26.781361c0,5.523656 -4.519355,10.04301 -10.04301,10.04301l-194.164867,0zm304.63798,-23.433691c0,114.657701 -92.897846,207.555547 -207.555547,207.555547s-207.555547,-92.897846 -207.555547,-207.555547s92.897846,-207.555547 207.555547,-207.555547s207.555547,92.897846 207.555547,207.555547zm-40.172041,0c0,-92.479387 -74.904119,-167.383506 -167.383506,-167.383506s-167.383506,74.904119 -167.383506,167.383506s74.904119,167.383506 167.383506,167.383506s167.383506,-74.904119 167.383506,-167.383506z" fill="#000000"/>
  </g><g stroke="null" id="svg_6">
   <path stroke="null" id="svg_5" d="m385.999973,268.444421c-64.939962,0 -117.555552,52.61559 -117.555552,117.555552s52.61559,117.555553 117.555552,117.555553s117.555553,-52.61559 117.555553,-117.555553s-52.61559,-117.555552 -117.555553,-117.555552z" fill="#00bf2c"/>
  </g><g stroke="null" id="svg_13">
   <path stroke="null" id="svg_12" d="m394.365729,312.755c0,-7.304359 -9.406664,-10.057305 -13.549893,-4.002052c-38.010289,55.559165 16.00514,58.060448 16.00514,85.068162c0,10.935055 -8.934029,19.783151 -19.902844,19.638905c-10.793879,-0.138108 -19.381104,-9.136587 -19.381104,-19.930466l0,-26.243519c0,-6.659857 -8.123798,-9.891575 -12.715109,-5.063946c-8.215869,8.630192 -16.747852,23.413847 -16.747852,41.420013c0,32.492122 26.4338,58.925922 58.925922,58.925922s58.925922,-26.4338 58.925922,-58.925922c0,-52.262996 -51.560182,-59.232828 -51.560182,-90.887097z" fill="#ffffff"/>
  </g>
</svg>