<svg xmlns="http://www.w3.org/2000/svg" width="30px" height="30px" class="svg-no-unread-posts-popular" viewBox="0 0 512 512">

 
 <g fill-opacity="0.2" stroke="null" id="svg_18">
   <path stroke="null" id="svg_17" d="m118.917579,239.433629c-5.523656,0 -10.04301,-4.519355 -10.04301,-10.04301l0,-26.781361c0,-5.523656 4.519355,-10.04301 10.04301,-10.04301l194.164867,0c5.523656,0 10.04301,4.519355 10.04301,10.04301l0,26.781361c0,5.523656 -4.519355,10.04301 -10.04301,10.04301l-194.164867,0zm304.63798,-23.433691c0,114.657701 -92.897846,207.555547 -207.555547,207.555547s-207.555547,-92.897846 -207.555547,-207.555547s92.897846,-207.555547 207.555547,-207.555547s207.555547,92.897846 207.555547,207.555547zm-40.172041,0c0,-92.479387 -74.904119,-167.383506 -167.383506,-167.383506s-167.383506,74.904119 -167.383506,167.383506s74.904119,167.383506 167.383506,167.383506s167.383506,-74.904119 167.383506,-167.383506z" fill="#000000"/>
  </g><g xmlns="http://www.w3.org/2000/svg" stroke="null" id="svg_6">
   <rect stroke="null" id="svg_8" height="141.566665" width="136.999999" y="315.933335" x="316.500009" stroke-opacity="null" stroke-width="null" fill="#ffffff"/>
  <path stroke="null" id="svg_5" d="m385.999973,268.444421c-64.939962,0 -117.555552,52.61559 -117.555552,117.555552s52.61559,117.555552 117.555552,117.555552s117.555552,-52.61559 117.555552,-117.555552s-52.61559,-117.555552 -117.555552,-117.555552zm57.640142,148.413885c2.227867,2.227867 2.227867,5.830376 0,8.058244l-18.770967,18.723566c-2.227867,2.227867 -5.830376,2.227867 -8.058244,0l-30.810931,-31.09534l-30.858333,31.09534c-2.227867,2.227867 -5.830376,2.227867 -8.058244,0l-18.723566,-18.770967c-2.227867,-2.227867 -2.227867,-5.830376 0,-8.058244l31.09534,-30.810931l-31.09534,-30.858333c-2.227867,-2.227867 -2.227867,-5.830376 0,-8.058244l18.770967,-18.770967c2.227867,-2.227867 5.830376,-2.227867 8.058244,0l30.810931,31.142741l30.858333,-31.09534c2.227867,-2.227867 5.830376,-2.227867 8.058244,0l18.770967,18.770967c2.227867,2.227867 2.227867,5.830376 0,8.058244l-31.142741,30.810931l31.09534,30.858333z" fill="#bd0000"/>
  </g>
</svg>