<svg xmlns="http://www.w3.org/2000/svg" width="30px" height="30px" class="svg-unread-posts-popular" viewBox="0 0 512 512">

 
 <path stroke="null" id="svg_1" d="m423.000015,214.500007c0,114.599409 -92.900598,207.500007 -207.500007,207.500007s-207.500007,-92.900598 -207.500007,-207.500007s92.900598,-207.500007 207.500007,-207.500007s207.500007,92.900598 207.500007,207.500007zm-231.501399,109.869581l153.951618,-153.951618c5.227661,-5.227661 5.227661,-13.704204 0,-18.931866l-18.931866,-18.931866c-5.227661,-5.228498 -13.704204,-5.228498 -18.932702,0l-125.553402,125.552565l-58.617915,-58.617915c-5.227661,-5.227661 -13.704204,-5.227661 -18.932702,0l-18.931866,18.931866c-5.227661,5.227661 -5.227661,13.704204 0,18.931866l87.016132,87.016132c5.228498,5.228498 13.704204,5.228498 18.932702,0.000837z" fill="#1259a1"/><g stroke="null" id="svg_6">
   <path stroke="null" id="svg_5" d="m385.999973,268.444421c-64.939962,0 -117.555552,52.61559 -117.555552,117.555552s52.61559,117.555553 117.555552,117.555553s117.555553,-52.61559 117.555553,-117.555553s-52.61559,-117.555552 -117.555553,-117.555552z" fill="#00bf2c"/>
  </g><g stroke="null" id="svg_13">
   <path stroke="null" id="svg_12" d="m394.365729,312.755c0,-7.304359 -9.406664,-10.057305 -13.549893,-4.002052c-38.010289,55.559165 16.00514,58.060448 16.00514,85.068162c0,10.935055 -8.934029,19.783151 -19.902844,19.638905c-10.793879,-0.138108 -19.381104,-9.136587 -19.381104,-19.930466l0,-26.243519c0,-6.659857 -8.123798,-9.891575 -12.715109,-5.063946c-8.215869,8.630192 -16.747852,23.413847 -16.747852,41.420013c0,32.492122 26.4338,58.925922 58.925922,58.925922s58.925922,-26.4338 58.925922,-58.925922c0,-52.262996 -51.560182,-59.232828 -51.560182,-90.887097z" fill="#ffffff"/>
  </g>
</svg>