<svg xmlns="http://www.w3.org/2000/svg" width="30px" height="30px" class="svg-unread-posts-locked" viewBox="0 0 512 512"><path stroke="null" id="svg_1" d="m452.99999,230.499995c0,122.883697 -99.616298,222.499995 -222.499995,222.499995s-222.499995,-99.616298 -222.499995,-222.499995s99.616298,-222.499995 222.499995,-222.499995s222.499995,99.616298 222.499995,222.499995zm-248.236426,117.811953l165.080641,-165.080641c5.605564,-5.605564 5.605564,-14.694869 0,-20.300433l-20.300433,-20.300433c-5.605564,-5.606462 -14.694869,-5.606462 -20.30133,0l-134.629543,134.628646l-62.855351,-62.855351c-5.605564,-5.605564 -14.694869,-5.605564 -20.30133,0l-20.300433,20.300433c-5.605564,5.605564 -5.605564,14.694869 0,20.300433l93.306449,93.306449c5.606462,5.606462 14.694869,5.606462 20.30133,0.000897z" fill="#1259a1"/><rect stroke="null" id="svg_8" height="124" width="120.000001" y="340.5" x="341.500006" stroke-opacity="null" stroke-width="null" fill="#ffffff"/><path stroke="null" id="svg_5" d="m399.999973,296.444418c-57.206093,0 -103.555555,46.349462 -103.555555,103.555555s46.349462,103.555555 103.555555,103.555555s103.555555,-46.349462 103.555555,-103.555555s-46.349462,-103.555555 -103.555555,-103.555555zm50.775627,130.738888c1.962545,1.962545 1.962545,5.136021 0,7.098566l-16.535484,16.493728c-1.962545,1.962545 -5.136021,1.962545 -7.098566,0l-27.141577,-27.392115l-27.183333,27.392115c-1.962545,1.962545 -5.136021,1.962545 -7.098566,0l-16.493728,-16.535484c-1.962545,-1.962545 -1.962545,-5.136021 0,-7.098566l27.392115,-27.141577l-27.392115,-27.183333c-1.962545,-1.962545 -1.962545,-5.136021 0,-7.098566l16.535484,-16.535484c1.962545,-1.962545 5.136021,-1.962545 7.098566,0l27.141577,27.433871l27.183333,-27.392115c1.962545,-1.962545 5.136021,-1.962545 7.098566,0l16.535484,16.535484c1.962545,1.962545 1.962545,5.136021 0,7.098566l-27.433871,27.141577l27.392115,27.183333z" fill="#bd0000"/></svg>