<svg xmlns="http://www.w3.org/2000/svg" width="30px" height="30px" class="svg-unread-posts-locked" viewBox="0 0 512 512"><path stroke="null" id="svg_1" d="m423.000015,214.500007c0,114.599409 -92.900598,207.500007 -207.500007,207.500007s-207.500007,-92.900598 -207.500007,-207.500007s92.900598,-207.500007 207.500007,-207.500007s207.500007,92.900598 207.500007,207.500007zm-231.501399,109.869581l153.951618,-153.951618c5.227661,-5.227661 5.227661,-13.704204 0,-18.931866l-18.931866,-18.931866c-5.227661,-5.228498 -13.704204,-5.228498 -18.932702,0l-125.553402,125.552565l-58.617915,-58.617915c-5.227661,-5.227661 -13.704204,-5.227661 -18.932702,0l-18.931866,18.931866c-5.227661,5.227661 -5.227661,13.704204 0,18.931866l87.016132,87.016132c5.228498,5.228498 13.704204,5.228498 18.932702,0.000837z" fill="#1259a1"/>
  <rect stroke="null" id="svg_8" height="141.566665" width="136.999999" y="315.933335" x="316.500009" stroke-opacity="null" stroke-width="null" fill="#ffffff"/>
  <path stroke="null" id="svg_5" d="m385.999973,268.444421c-64.939962,0 -117.555552,52.61559 -117.555552,117.555552s52.61559,117.555552 117.555552,117.555552s117.555552,-52.61559 117.555552,-117.555552s-52.61559,-117.555552 -117.555552,-117.555552zm57.640142,148.413885c2.227867,2.227867 2.227867,5.830376 0,8.058244l-18.770967,18.723566c-2.227867,2.227867 -5.830376,2.227867 -8.058244,0l-30.810931,-31.09534l-30.858333,31.09534c-2.227867,2.227867 -5.830376,2.227867 -8.058244,0l-18.723566,-18.770967c-2.227867,-2.227867 -2.227867,-5.830376 0,-8.058244l31.09534,-30.810931l-31.09534,-30.858333c-2.227867,-2.227867 -2.227867,-5.830376 0,-8.058244l18.770967,-18.770967c2.227867,-2.227867 5.830376,-2.227867 8.058244,0l30.810931,31.142741l30.858333,-31.09534c2.227867,-2.227867 5.830376,-2.227867 8.058244,0l18.770967,18.770967c2.227867,2.227867 2.227867,5.830376 0,8.058244l-31.142741,30.810931l31.09534,30.858333z" fill="#bd0000"/>
</svg>