<svg width="376" height="63" xmlns="http://www.w3.org/2000/svg" xmlns:xlink="http://www.w3.org/1999/xlink" overflow="hidden"><defs><clipPath id="clip0"><path d="M175 457 551 457 551 520 175 520Z" fill-rule="evenodd" clip-rule="evenodd"/></clipPath><linearGradient x1="290.5" y1="457" x2="290.5" y2="519" gradientUnits="userSpaceOnUse" spreadMethod="reflect" id="fill1"><stop offset="0" stop-color="#00F2B8"/><stop offset="0.43" stop-color="#00F2B8"/><stop offset="0.92" stop-color="#00F2B8" stop-opacity="0.701961"/><stop offset="1" stop-color="#00F2B8" stop-opacity="0.701961"/></linearGradient><linearGradient x1="449.5" y1="457" x2="449.5" y2="519" gradientUnits="userSpaceOnUse" spreadMethod="reflect" id="fill2"><stop offset="0" stop-color="#00F2B8"/><stop offset="0.24" stop-color="#00F2B8"/><stop offset="1" stop-color="#00F2B8" stop-opacity="0.701961"/></linearGradient></defs><g clip-path="url(#clip0)" transform="translate(-175 -457)"><path d="M366.731 475.061 366.731 500.939 370.128 500.939C374.846 500.963 378.567 499.94 381.291 497.871 384.016 495.801 385.406 492.54 385.462 488.089L385.462 487.911C385.406 483.46 384.016 480.199 381.291 478.129 378.567 476.06 374.846 475.037 370.128 475.061ZM232.96 473.419 244.396 473.419C247.408 473.436 249.735 474.083 251.378 475.36 253.02 476.638 253.852 478.445 253.873 480.783L253.873 480.89C253.82 483.311 252.92 485.192 251.172 486.533 249.425 487.874 247.149 488.554 244.343 488.574L232.96 488.574ZM326.649 469.532 326.649 506.863 330.823 506.863 330.823 496.837 338.709 488.784 352.946 506.863 358.186 506.863 341.62 485.851 357.498 469.532 352.1 469.532 330.823 491.824 330.823 469.532ZM294.693 469.532 294.693 506.863 321.732 506.863 321.732 503.029 298.868 503.029 298.868 489.954 319.086 489.954 319.086 486.12 298.868 486.12 298.868 473.366 321.467 473.366 321.467 469.532ZM262.738 469.532 262.738 506.863 289.777 506.863 289.777 503.029 266.913 503.029 266.913 489.954 287.13 489.954 287.13 486.12 266.913 486.12 266.913 473.366 289.512 473.366 289.512 469.532ZM228.786 469.532 228.786 506.863 232.96 506.863 232.96 492.354 243.443 492.354 243.549 492.354 254.295 506.863 259.423 506.863 248.049 491.609C251.016 491.03 253.419 489.844 255.258 488.051 257.098 486.259 258.045 483.818 258.1 480.73L258.1 480.623C258.097 479.126 257.852 477.758 257.367 476.521 256.881 475.284 256.175 474.196 255.246 473.259 254.078 472.079 252.607 471.165 250.835 470.517 249.062 469.869 247.022 469.541 244.713 469.532ZM207.772 468.892C204.043 468.941 200.791 469.85 198.016 471.621 195.24 473.392 193.083 475.732 191.543 478.641 190.003 481.549 189.221 484.735 189.198 488.198L189.198 488.305C189.215 491.9 189.98 495.14 191.494 498.023 193.008 500.907 195.168 503.198 197.976 504.896 200.784 506.594 204.138 507.463 208.037 507.503 211.198 507.462 214.034 506.905 216.546 505.831 219.057 504.758 221.177 503.415 222.905 501.801L222.905 486.921 207.613 486.921 207.613 490.701 218.889 490.701 218.889 499.987C217.597 501.053 216.026 501.936 214.178 502.635 212.329 503.334 210.335 503.697 208.196 503.722 205.181 503.695 202.581 503.014 200.394 501.677 198.207 500.34 196.52 498.508 195.333 496.182 194.146 493.855 193.546 491.194 193.531 488.198L193.531 488.092C193.553 485.283 194.162 482.727 195.359 480.423 196.555 478.12 198.207 476.279 200.315 474.9 202.424 473.521 204.856 472.814 207.613 472.779 210.201 472.8 212.384 473.198 214.164 473.973 215.945 474.748 217.52 475.773 218.889 477.048L221.584 473.846C219.78 472.264 217.796 471.046 215.633 470.19 213.47 469.335 210.849 468.902 207.772 468.892ZM205.751 457 321.683 457 335.772 457 359.51 457 366.523 457 369.693 457C381.798 457.123 390.875 459.909 396.925 465.357 402.975 470.805 406 478.175 406 487.468L406 487.646C406 493.806 404.627 499.233 401.883 503.926 399.139 508.618 395.026 512.292 389.544 514.947 384.061 517.601 377.212 518.952 368.996 519L360.798 519 360.798 518.983 335.772 518.983 321.683 518.983 205.751 518.983C188.768 518.983 175 505.107 175 487.991 175 470.875 188.768 457 205.751 457Z" fill="url(#fill1)" fill-rule="evenodd"/><path d="M445.373 494.107 445.373 503.331 455.642 503.331C457.881 503.309 459.567 502.888 460.699 502.067 461.831 501.247 462.398 500.16 462.399 498.808L462.399 498.63C462.401 497.278 461.849 496.191 460.743 495.371 459.637 494.55 457.966 494.129 455.73 494.107ZM445.373 472.669 445.373 481.361 454.326 481.361C456.516 481.356 458.147 480.99 459.219 480.264 460.29 479.538 460.824 478.484 460.821 477.104L460.821 476.926C460.821 475.546 460.272 474.493 459.175 473.766 458.078 473.04 456.432 472.674 454.238 472.669ZM425.387 457 459.768 457C463.991 457.005 467.512 457.481 470.332 458.427 473.152 459.374 475.445 460.757 477.213 462.577 478.329 463.682 479.231 465.035 479.92 466.638 480.608 468.241 480.963 470.103 480.983 472.226L480.983 472.403C480.937 476.071 479.933 479.067 477.969 481.391 476.006 483.715 473.359 485.446 470.026 486.584 474.018 487.686 477.167 489.42 479.472 491.786 481.776 494.151 482.952 497.438 483 501.646L483 501.823C482.987 506.878 480.996 510.98 477.028 514.131 473.059 517.281 467.188 518.904 459.415 519L445.692 519 445.692 519 416 519 416 506.647 425.387 506.647Z" fill="url(#fill2)" fill-rule="evenodd"/><path d="M386 481.878 405.372 482.633 406.629 490.262C406.678 494.016 407.556 496.756 409.264 498.48 410.973 500.204 413.218 501.054 416 501.031 418.782 501.062 421.027 500.262 422.736 498.632 424.444 497.002 425.322 494.357 425.371 490.696L425.371 457 446 457 446 490.088C445.876 500.371 443.112 507.783 437.71 512.324 432.308 516.865 425.014 519.09 415.827 518.997 406.654 519.07 399.417 516.842 394.116 512.313 388.815 507.785 386.11 500.521 386 490.523L386 481.878Z" fill="#00F2B8" fill-rule="evenodd"/><path d="M522.744 490.436 526.539 490.436C527.358 490.444 527.97 490.597 528.375 490.895 528.781 491.192 528.983 491.586 528.982 492.077L528.982 492.141C528.982 492.632 528.774 493.026 528.359 493.323 527.945 493.621 527.327 493.773 526.506 493.781L522.744 493.781ZM498.835 483.529 500.089 483.529C501.83 483.52 503.203 483.891 504.208 484.642 505.214 485.392 505.727 486.575 505.748 488.189L505.748 488.254C505.727 489.868 505.214 491.05 504.208 491.801 503.203 492.552 501.83 492.923 500.089 492.914L498.835 492.914ZM522.744 482.662 525.992 482.662C526.796 482.664 527.399 482.796 527.801 483.06 528.203 483.323 528.404 483.705 528.404 484.206L528.404 484.27C528.405 484.771 528.21 485.153 527.817 485.416 527.424 485.679 526.827 485.812 526.024 485.814L522.744 485.814ZM515.421 476.979 515.421 499.464 527.889 499.464C530.737 499.429 532.888 498.84 534.342 497.698 535.796 496.555 536.526 495.068 536.53 493.234L536.53 493.17C536.513 491.644 536.082 490.452 535.237 489.594 534.393 488.736 533.239 488.107 531.777 487.708 532.998 487.295 533.968 486.667 534.687 485.824 535.406 484.982 535.774 483.895 535.791 482.565L535.791 482.501C535.784 481.731 535.654 481.056 535.402 480.474 535.149 479.893 534.819 479.402 534.41 479.001 533.762 478.341 532.922 477.84 531.889 477.497 530.855 477.153 529.565 476.981 528.018 476.979ZM491.319 476.979 491.319 499.464 499.671 499.464C502.703 499.446 505.231 498.957 507.254 497.994 509.278 497.031 510.796 495.699 511.809 493.997 512.821 492.295 513.328 490.327 513.328 488.093L513.328 488.028C513.328 484.658 512.212 481.985 509.979 480.01 507.746 478.034 504.395 477.024 499.928 476.979ZM479.5 466 527.994 466C540.147 466 550 475.85 550 488L550 488C550 500.15 540.147 510 527.994 510L480.426 510 481.558 508.636C482.561 506.59 483.066 504.307 483.072 501.786L483.072 501.609C483.025 497.413 481.84 494.135 479.517 491.776 477.195 489.416 474.022 487.687 470 486.588 473.358 485.453 476.026 483.727 478.004 481.409 479.982 479.091 480.994 476.103 481.04 472.445L481.04 472.269C481.02 470.152 480.663 468.294 479.969 466.696Z" fill="#00F2B8" fill-rule="evenodd" fill-opacity="0.4"/></g></svg>